<svg width="94" height="95" viewBox="0 0 94 95" fill="none" xmlns="http://www.w3.org/2000/svg">
<path d="M48.3153 68.2181C52.7702 69.5795 57.2058 70.9326 61.8157 72.341C61.6995 67.8778 61.586 63.5225 61.4726 59.2142C60.7282 58.6442 60.2191 58.7853 59.5661 59.3941C52.1725 66.2452 40.9024 66.1705 33.448 59.2585C33.0772 58.9154 32.7147 58.3426 32.1668 58.7991C31.8735 59.0426 31.6964 59.5711 31.6826 59.9779C31.5609 63.7051 31.4861 67.4323 31.3976 71.1595C31.3893 71.4999 31.3976 71.843 31.3976 72.3549C35.9134 70.9713 40.3379 69.6183 44.8509 68.2347V94.8952H26.5968C26.5968 92.3661 26.5968 89.8896 26.5968 87.4131C26.5968 86.8597 26.6134 86.3063 26.5885 85.7556C26.5359 84.5769 25.9272 83.9128 24.931 83.9073C23.9321 83.9045 23.2985 84.5686 23.2902 85.7473C23.2653 88.4065 23.2819 91.0628 23.2791 93.7219C23.2791 94.0955 23.2791 94.4663 23.2791 94.9616H21.8596C18.304 94.9616 14.7483 94.9616 11.1927 94.9616C8.44777 94.9616 7.33266 93.9101 7.13343 90.9743C5.85506 90.9743 4.56008 90.9743 3.26511 90.9743C1.48037 90.9743 1.11512 90.692 0.686227 88.9765C-0.285004 85.0777 -0.20476 81.1873 0.796908 77.3051C1.05978 76.2896 1.6879 75.8192 2.74767 75.8441C4.18653 75.8773 5.62816 75.8524 7.1528 75.8524V67.6979C8.81579 68.3039 10.3377 68.8573 11.9398 69.4384C13.1932 65.5978 15.5037 62.5955 19.1396 60.2823C18.1518 60.238 17.4545 60.2076 16.688 60.1716V39.3967H30.5094C30.5398 38.4531 30.2299 37.9218 29.3251 37.5676C24.4855 35.6722 22.579 29.2831 24.729 24.6815C25.4595 23.1154 26.8597 22.4983 28.542 22.6256C28.2293 20.697 27.8171 18.821 27.6427 16.92C27.4407 14.7036 27.7977 12.5785 29.3915 10.8353C29.5658 10.6443 29.6903 10.3649 29.7346 10.1075C30.4845 5.78266 33.1298 3.05713 37.0645 1.45224C40.8692 -0.100065 44.8676 -0.163707 48.8825 0.151736C50.457 0.276253 52.0508 0.50315 53.5644 0.934808C59.9064 2.74999 63.1854 7.2907 64.3586 13.5359C64.9175 16.5105 64.7045 19.5155 64.1787 22.5149C64.2811 22.562 64.3669 22.6339 64.4527 22.6339C67.2059 22.6644 68.2629 23.5138 69.0072 26.173C70.197 30.4287 68.1826 36.1399 63.4814 37.8028C63.0553 37.9523 62.8284 38.6634 62.5074 39.1117C62.5877 39.203 62.6651 39.2915 62.7454 39.3828H76.5142V60.1799H74.176C74.1345 60.2546 74.093 60.3293 74.0543 60.404C77.5269 62.554 79.9287 65.5396 81.2071 69.4661C82.8037 68.885 84.3366 68.3261 86.0439 67.7062V75.8552C87.5574 75.8552 88.9299 75.8469 90.3023 75.8552C91.5752 75.8635 92.0317 76.2315 92.3472 77.4462C93.3793 81.4031 93.3931 85.3572 92.3583 89.3168C92.0317 90.5648 91.5447 90.9632 90.2415 90.9743C88.8995 90.9853 87.5547 90.9743 86.2569 90.9743C86.1712 91.0905 86.0964 91.1403 86.0964 91.1929C86.0771 93.6085 84.6327 95.0999 81.766 94.9948C78.2159 94.8647 74.6575 94.9644 71.1019 94.9644H69.8484C69.8484 93.2294 69.8484 91.5803 69.8484 89.9339C69.8484 89.0373 69.8622 88.1381 69.8429 87.2415C69.8152 86.0102 69.1788 85.2797 68.1799 85.2935C67.1865 85.3046 66.5528 86.0379 66.539 87.2803C66.5169 89.4552 66.5335 91.6301 66.5307 93.805C66.5307 94.1453 66.5307 94.4884 66.5307 94.9035H48.318V68.2237L48.3153 68.2181ZM60.0392 31.5493L59.887 31.5383C59.887 30.2959 59.84 29.0507 59.9009 27.8111C59.9535 26.7402 59.7681 25.7662 59.187 24.8586C58.249 23.3949 57.7343 21.8398 58.047 20.0634C58.1355 19.5681 57.9861 19.034 57.9806 18.5166C57.9363 14.7036 54.1648 12.3488 51.0353 13.2675C49.8814 13.6078 48.7497 14.0395 47.5792 14.3024C46.9484 14.4463 46.2345 14.4407 45.6036 14.2968C44.4331 14.0312 43.3014 13.6078 42.1503 13.2592C39.2007 12.3682 35.515 14.5929 35.2853 17.9051C35.2244 18.7628 35.0805 19.6372 35.1746 20.4812C35.3351 21.9643 34.9311 23.2399 34.22 24.5128C33.7966 25.2709 33.376 26.1453 33.3401 26.9837C33.2294 29.6373 33.2211 32.2992 33.3318 34.9528C33.3899 36.3834 33.5891 37.8582 34.0374 39.2085C35.3462 43.1654 38.2377 45.8522 41.619 48.0713C42.3357 48.5417 43.1132 48.9263 43.8908 49.2944C45.4293 50.0221 47.1227 50.1909 48.6252 49.5379C53.8632 47.2634 58.0138 43.7935 59.4775 38.0131C60.0005 35.9434 59.8677 33.7049 60.0365 31.5438L60.0392 31.5493ZM35.9134 56.9425C41.8847 62.7892 51.9899 62.2801 57.0979 57.0476C55.0281 55.2463 54.5107 52.85 54.685 49.9612C49.2201 54.2335 43.8963 54.1948 38.4812 49.9308C38.6888 52.8306 37.9776 55.1273 35.9134 56.9425ZM3.81852 87.7175C5.29335 87.6483 6.78202 87.7175 8.21534 87.474C10.1523 87.1475 11.4915 85.3295 11.4832 83.3788C11.4749 81.4003 10.0388 79.5215 8.08806 79.2697C6.67687 79.0871 5.22417 79.2337 3.75764 79.2337C3.16273 82.0478 3.17656 84.7955 3.81852 87.7175ZM89.3366 79.1729C88.0583 79.1729 86.8574 79.1369 85.6565 79.1812C83.5369 79.2586 81.8822 80.8829 81.6526 83.0522C81.4395 85.0639 82.8286 87.1004 84.8817 87.4712C86.185 87.7064 87.5519 87.6289 88.8884 87.6317C89.0738 87.6317 89.3809 87.2996 89.4252 87.0811C89.9343 84.4883 89.9343 81.8929 89.3366 79.1756V79.1729ZM64.876 57.6813C64.829 57.8196 64.7875 57.886 64.7902 57.9497C64.9148 62.911 65.0393 67.8695 65.1776 72.828C65.1832 73.0328 65.2938 73.3676 65.4377 73.4174C66.3868 73.7578 67.358 74.0345 68.44 74.3693C68.5783 69.253 68.7194 64.3664 68.8384 59.4798C68.855 58.7908 68.4178 58.4228 67.7676 58.2872C66.8268 58.0908 65.886 57.8888 64.876 57.6757V57.6813ZM28.3124 57.6923C27.3854 57.8888 26.5165 58.1101 25.6366 58.2457C24.6682 58.3952 24.3084 58.8988 24.3416 59.8728C24.48 64.2502 24.5741 68.6304 24.6875 73.0079C24.6986 73.4091 24.7456 73.8076 24.7899 74.3444C25.6007 74.1119 26.2758 73.8657 26.9731 73.7356C27.8032 73.5807 28.0495 73.149 28.0633 72.3189C28.1353 67.6979 28.2708 63.077 28.376 58.4588C28.3815 58.2264 28.3373 57.9912 28.3124 57.6923ZM21.1374 72.8668V62.9248C18.0134 64.8258 16.071 67.2884 15.0665 70.6033C17.128 71.3726 19.1451 72.1224 21.1374 72.8668ZM71.979 72.9C73.9685 72.1612 76.0134 71.403 78.0942 70.6338C77.0455 67.3133 75.1417 64.8424 71.979 63.0299V72.9ZM63.1854 33.9677C63.2684 34.0203 63.3514 34.0729 63.4344 34.1254C63.8162 33.7547 64.2534 33.4254 64.5716 33.0076C65.9496 31.1896 66.3508 29.1475 65.7615 26.9505C65.6591 26.5714 65.1638 25.9654 64.9646 26.0097C64.2479 26.1647 63.2379 26.22 63.2075 27.2494C63.1383 29.4879 63.1854 31.7292 63.1854 33.9705V33.9677ZM29.8702 34.0978C29.9283 33.9594 29.9753 33.8986 29.9753 33.8404C29.9809 31.8814 29.8757 29.9168 30.0251 27.9688C30.1192 26.7208 29.4496 26.3556 28.542 26.018C28.0024 25.8188 27.723 26.0319 27.5182 26.5327C26.4972 29.0728 27.5459 32.5427 29.8702 34.0978ZM26.5774 80.1939C26.5525 79.2088 25.8331 78.506 24.8729 78.5309C23.9183 78.5558 23.2625 79.2835 23.2874 80.2963C23.3095 81.2952 24.0207 81.998 24.9753 81.9676C25.9161 81.9371 26.6023 81.179 26.5774 80.1939ZM68.238 79.92C67.2944 79.895 66.5667 80.6173 66.5418 81.6023C66.5169 82.5874 67.2031 83.3428 68.1467 83.3649C69.1096 83.3871 69.8096 82.6925 69.829 81.6936C69.8484 80.6864 69.1815 79.9449 68.238 79.92Z" fill="#B10C0C"/>
<path d="M73.2109 17.7253C73.2746 12.609 77.5663 8.72407 82.7102 9.16126C87.4889 9.57079 90.9726 14.2388 90.1563 19.1503C89.3622 23.94 86.6034 27.6008 83.3106 30.9268C82.4335 31.8122 81.097 31.8122 80.2143 30.9268C77.0101 27.7143 74.3205 24.1669 73.4351 19.5653C73.3189 18.9594 73.2829 18.3368 73.2109 17.7225V17.7253ZM81.7002 21.4414C83.853 21.4414 85.5187 19.8005 85.5215 17.6754C85.5215 15.5919 83.8862 13.9316 81.8081 13.9123C79.6692 13.8901 78.0062 15.5338 77.9952 17.6782C77.9841 19.7673 79.6332 21.4414 81.7002 21.4414Z" fill="#B10C0C"/>
<path d="M12.7679 39.3856V60.1301C11.6943 60.1301 10.6511 60.2657 9.66054 60.0969C8.33236 59.87 7.48288 58.9624 7.1868 57.6232C7.08996 57.1915 7.08166 56.7322 7.07889 56.2867C7.07059 51.9757 7.07059 47.6646 7.07612 43.3536C7.07889 40.581 8.27702 39.3884 11.0441 39.3856C11.5892 39.3856 12.1343 39.3856 12.7679 39.3856Z" fill="#B10C0C"/>
<path d="M80.3789 39.3856C81.1122 39.3856 81.7652 39.38 82.4155 39.3856C84.69 39.4049 86.0209 40.6916 86.032 42.9855C86.0569 47.5428 86.0596 52.1001 86.032 56.6574C86.0181 58.8904 84.7038 60.166 82.4708 60.2159C81.7901 60.2325 81.1094 60.2159 80.3817 60.2159V39.3828L80.3789 39.3856Z" fill="#B10C0C"/>
</svg>
